<svg fill="#A00D2D" height="24" viewBox="0 0 24 24" width="24" xmlns="http://www.w3.org/2000/svg"><path d="m12.7071068 12 2.1464466 2.1464466c.1952621.1952622.1952621.5118446 0 .7071068-.1952622.1952621-.5118446.1952621-.7071068 0l-2.1464466-2.1464466-2.14644661 2.1464466c-.19526215.1952621-.51184463.1952621-.70710678 0-.19526215-.1952622-.19526215-.5118446 0-.7071068l2.14644659-2.1464466-2.14644659-2.14644661c-.19526215-.19526215-.19526215-.51184463 0-.70710678s.51184463-.19526215.70710678 0l2.14644661 2.14644659 2.1464466-2.14644659c.1952622-.19526215.5118446-.19526215.7071068 0 .1952621.19526215.1952621.51184463 0 .70710678zm-9.7071068-6.5c0-1.38071187 1.11928813-2.5 2.5-2.5h13c1.3807119 0 2.5 1.11928813 2.5 2.5v13c0 1.3807119-1.1192881 2.5-2.5 2.5h-13c-1.38071187 0-2.5-1.1192881-2.5-2.5zm1 0v13c0 .8284271.67157288 1.5 1.5 1.5h13c.8284271 0 1.5-.6715729 1.5-1.5v-13c0-.82842712-.6715729-1.5-1.5-1.5h-13c-.82842712 0-1.5.67157288-1.5 1.5z"/></svg>