<svg width="25" height="25" viewBox="0 0 25 25" fill="none" xmlns="http://www.w3.org/2000/svg">
<path d="M22.2656 12.5C22.2667 10.8742 21.8618 9.27393 21.0878 7.84426C20.3137 6.41459 19.195 5.20078 17.8331 4.31295C16.4711 3.42511 14.9091 2.89134 13.2886 2.76005C11.6682 2.62876 10.0406 2.9041 8.5535 3.56111C7.06641 4.21811 5.76687 5.23599 4.77277 6.52241C3.77866 7.80882 3.12145 9.32307 2.86075 10.9278C2.60005 12.5325 2.74411 14.1769 3.27985 15.7119C3.8156 17.2468 4.72608 18.6238 5.92871 19.7177C5.95249 19.746 5.98018 19.7707 6.01094 19.7911C7.79673 21.3848 10.1066 22.2656 12.5001 22.2656C14.8937 22.2656 17.2035 21.3847 18.9893 19.7909C19.0199 19.7705 19.0474 19.746 19.0711 19.7179C20.0777 18.8042 20.8819 17.69 21.4321 16.4469C21.9823 15.2038 22.2662 13.8594 22.2656 12.5V12.5ZM3.51562 12.5C3.5146 11.0229 3.87776 9.56839 4.57296 8.26515C5.26815 6.96192 6.27394 5.85018 7.50128 5.02838C8.72861 4.20657 10.1396 3.70003 11.6094 3.55362C13.0792 3.40721 14.5624 3.62543 15.9278 4.18897C17.2931 4.75251 18.4985 5.64398 19.4371 6.78446C20.3757 7.92494 21.0187 9.27925 21.3091 10.7275C21.5994 12.1757 21.5283 13.6732 21.1019 15.0874C20.6754 16.5016 19.9069 17.7888 18.8644 18.8351C17.8947 17.2113 16.339 16.0215 14.5179 15.5109C15.3643 15.0607 16.0358 14.3403 16.4256 13.4645C16.8154 12.5887 16.9012 11.6076 16.6692 10.6774C16.4371 9.74728 15.9007 8.92141 15.1453 8.33122C14.3898 7.74104 13.4587 7.42045 12.5 7.42045C11.5413 7.42045 10.6102 7.74104 9.85473 8.33122C9.09926 8.92141 8.56286 9.74728 8.33085 10.6774C8.09885 11.6076 8.18457 12.5887 8.57438 13.4645C8.96419 14.3403 9.6357 15.0607 10.4821 15.5109C8.66102 16.0215 7.10528 17.2113 6.13561 18.8351C5.30426 18.0029 4.64499 17.0151 4.19545 15.9282C3.74591 14.8412 3.5149 13.6763 3.51562 12.5V12.5ZM12.5 15.2344C11.8047 15.2344 11.125 15.0282 10.5468 14.6419C9.96868 14.2556 9.51808 13.7065 9.25199 13.0641C8.9859 12.4217 8.91628 11.7148 9.05193 11.0329C9.18758 10.3509 9.52241 9.72449 10.0141 9.23282C10.5057 8.74115 11.1322 8.40632 11.8141 8.27067C12.4961 8.13502 13.203 8.20464 13.8454 8.47073C14.4878 8.73682 15.0368 9.18742 15.4231 9.76556C15.8094 10.3437 16.0156 11.0234 16.0156 11.7187C16.0146 12.6508 15.6438 13.5444 14.9848 14.2035C14.3257 14.8626 13.4321 15.2333 12.5 15.2344V15.2344ZM6.72507 19.3766C7.30483 18.3561 8.14468 17.5074 9.1591 16.917C10.1735 16.3266 11.3263 16.0156 12.5 16.0156C13.6737 16.0156 14.8265 16.3267 15.8409 16.9171C16.8553 17.5075 17.6951 18.3562 18.2749 19.3767C16.6585 20.7379 14.6132 21.4844 12.5 21.4844C10.3868 21.4844 8.34147 20.7379 6.72507 19.3766V19.3766Z" fill="black" stroke-width="1px"/>
</svg>
